<svg xmlns="http://www.w3.org/2000/svg" viewBox="0 0 512 512" width="512" height="512">
  <defs>
    <linearGradient id="g" x1="0" y1="0" x2="1" y2="1">
      <stop offset="0" stop-color="#F15A9C"/>
      <stop offset="0.52" stop-color="#A93DD6"/>
      <stop offset="1" stop-color="#6E30C7"/>
    </linearGradient>
  </defs>
  <rect width="512" height="512" rx="112" fill="url(#g)"/>
  <g fill="none" stroke="#fff" stroke-width="12" stroke-linecap="round" stroke-linejoin="round">
    <circle cx="256" cy="238" r="118"/>
    <circle cx="256" cy="238" r="20" fill="#fff" stroke="none"/>
    <line x1="256" y1="120" x2="256" y2="356"/>
    <line x1="138" y1="238" x2="374" y2="238"/>
    <line x1="173" y1="155" x2="339" y2="321"/>
    <line x1="339" y1="155" x2="173" y2="321"/>
    <line x1="256" y1="356" x2="200" y2="440"/>
    <line x1="256" y1="356" x2="312" y2="440"/>
    <line x1="176" y1="440" x2="336" y2="440"/>
  </g>
  <g fill="#fff">
    <circle cx="256" cy="120" r="15"/>
    <circle cx="173" cy="155" r="15"/>
    <circle cx="339" cy="155" r="15"/>
    <circle cx="138" cy="238" r="15"/>
    <circle cx="374" cy="238" r="15"/>
    <circle cx="173" cy="321" r="15"/>
    <circle cx="339" cy="321" r="15"/>
  </g>
</svg>
